<?xml version="1.0" encoding="UTF-8" standalone="no"?>
<svg
   xmlns:dc="http://purl.org/dc/elements/1.1/"
   xmlns:cc="http://creativecommons.org/ns#"
   xmlns:rdf="http://www.w3.org/1999/02/22-rdf-syntax-ns#"
   xmlns:svg="http://www.w3.org/2000/svg"
   xmlns="http://www.w3.org/2000/svg"
   xmlns:sodipodi="http://sodipodi.sourceforge.net/DTD/sodipodi-0.dtd"
   xmlns:inkscape="http://www.inkscape.org/namespaces/inkscape"
   viewBox="0 0 31.376596 31.376596"
   width="31.376596"
   height="31.376596"
   version="1.1"
   id="svg843"
   sodipodi:docname="Google__G__Logo.svg"
   inkscape:version="1.0.2 (e86c8708, 2021-01-15)">
  <metadata
     id="metadata849">
    <rdf:RDF>
      <cc:Work
         rdf:about="">
        <dc:format>image/svg+xml</dc:format>
        <dc:type
           rdf:resource="http://purl.org/dc/dcmitype/StillImage" />
      </cc:Work>
    </rdf:RDF>
  </metadata>
  <defs
     id="defs847" />
  <sodipodi:namedview
     pagecolor="#ffffff"
     bordercolor="#666666"
     borderopacity="1"
     objecttolerance="10"
     gridtolerance="10"
     guidetolerance="10"
     inkscape:pageopacity="0"
     inkscape:pageshadow="2"
     inkscape:window-width="1440"
     inkscape:window-height="855"
     id="namedview845"
     showgrid="false"
     inkscape:zoom="16.987183"
     inkscape:cx="12.043027"
     inkscape:cy="15.36538"
     inkscape:window-x="0"
     inkscape:window-y="23"
     inkscape:window-maximized="0"
     inkscape:current-layer="layer1" />
  <g
     inkscape:groupmode="layer"
     id="layer1"
     inkscape:label="circle"
     transform="translate(-3.8264151,9.7132082)">
    <circle
       style="fill:#ffffff;fill-opacity:1;stroke:none;stroke-width:0.377953;stroke-linecap:round;stroke-linejoin:round;stroke-miterlimit:4;stroke-dasharray:none;stroke-opacity:1;paint-order:fill markers stroke"
       id="path857"
       cx="19.514713"
       cy="5.97509"
       r="15.688298" />
  </g>
  <g
     inkscape:groupmode="layer"
     id="layer2"
     inkscape:label="g"
     transform="translate(-3.8264151,9.7132082)">
    <g
       id="g855"
       transform="translate(34.523713,-45.26391)">
      <path
         fill="#4285f4"
         d="m -3.264,51.509 c 0,-0.79 -0.07,-1.54 -0.19,-2.27 h -11.3 v 4.51 h 6.47 c -0.29,1.48 -1.14,2.73 -2.4,3.58 v 3 h 3.86 c 2.26,-2.09 3.56,-5.17 3.56,-8.82 z"
         id="path833" />
      <path
         fill="#34a853"
         d="m -14.754,63.239 c 3.24,0 5.95,-1.08 7.93,-2.91 l -3.86,-3 c -1.08,0.72 -2.45,1.16 -4.07,1.16 -3.13,0 -5.78,-2.11 -6.73,-4.96 h -3.98 v 3.09 c 1.97,3.92 6.02,6.62 10.71,6.62 z"
         id="path835" />
      <path
         fill="#fbbc05"
         d="m -21.484,53.529 c -0.25,-0.72 -0.38,-1.49 -0.38,-2.29 0,-0.8 0.14,-1.57 0.38,-2.29 v -3.09 h -3.98 c -0.82,1.62 -1.29,3.44 -1.29,5.38 0,1.94 0.47,3.76 1.29,5.38 z"
         id="path837" />
      <path
         fill="#ea4335"
         d="m -14.754,43.989 c 1.77,0 3.35,0.61 4.6,1.8 l 3.42,-3.42 c -2.07,-1.94 -4.78,-3.13 -8.02,-3.13 -4.69,0 -8.74,2.7 -10.71,6.62 l 3.98,3.09 c 0.95,-2.85 3.6,-4.96 6.73,-4.96 z"
         id="path839" />
    </g>
  </g>
</svg>
